<svg width="291" height="90" version="1.1" xmlns="http://www.w3.org/2000/svg" desc="Created with imagetracer.js version 1.2.4" ><path fill="rgb(241,239,221)" stroke="rgb(241,239,221)" stroke-width="1" opacity="1" d="M 98.5 20 L 101 21.5 L 99.5 24 L 97 22.5 L 98.5 20 Z M 98 21 Q 97 24 100 23 Q 101 20 98 21 Z " /><path fill="rgb(241,239,221)" stroke="rgb(241,239,221)" stroke-width="1" opacity="1" d="M 81.5 21 L 82.5 23 L 81.5 21 Z " /><path fill="rgb(241,239,221)" stroke="rgb(241,239,221)" stroke-width="1" opacity="1" d="M 17.5 23 L 18 31.5 L 17 31.5 L 17.5 23 Z " /><path fill="rgb(241,239,221)" stroke="rgb(241,239,221)" stroke-width="1" opacity="1" d="M 92.5 23 L 93 29.5 L 92 29.5 L 92.5 23 Z " /><path fill="rgb(241,239,221)" stroke="rgb(241,239,221)" stroke-width="1" opacity="1" d="M 45.5 24 L 44.5 26 L 45.5 24 Z " /><path fill="rgb(241,239,221)" stroke="rgb(241,239,221)" stroke-width="1" opacity="1" d="M 71.5 24 L 70.5 26 L 71.5 24 Z " /><path fill="rgb(241,239,221)" stroke="rgb(241,239,221)" stroke-width="1" opacity="1" d="M 85.5 24 L 86 30.5 L 85 30.5 L 85.5 24 Z " /><path fill="rgb(241,239,221)" stroke="rgb(241,239,221)" stroke-width="1" opacity="1" d="M 55.5 25 L 56 27.5 L 55 27.5 L 55.5 25 Z " /><path fill="rgb(241,239,221)" stroke="rgb(241,239,221)" stroke-width="1" opacity="1" d="M 73.5 25 L 74 27.5 L 73 27.5 L 73.5 25 Z " /><path fill="rgb(241,239,221)" stroke="rgb(241,239,221)" stroke-width="1" opacity="1" d="M 49.5 26 L 50 31.5 L 48 32.5 L 49.5 26 Z " /><path fill="rgb(241,239,221)" stroke="rgb(241,239,221)" stroke-width="1" opacity="1" d="M 63.5 28 L 64.5 32 Q 60 30 63.5 28 Z " /><path fill="rgb(241,239,221)" stroke="rgb(241,239,221)" stroke-width="1" opacity="1" d="M 98.5 37 L 99.5 39 L 98.5 37 Z " /><path fill="rgb(241,239,221)" stroke="rgb(241,239,221)" stroke-width="1" opacity="1" d="M 128.5 44 L 129.5 46 L 128.5 44 Z " /><path fill="rgb(241,239,221)" stroke="rgb(241,239,221)" stroke-width="1" opacity="1" d="M 255.5 45 L 258 46.5 L 256.5 47 L 255.5 45 Z " /><path fill="rgb(241,239,221)" stroke="rgb(241,239,221)" stroke-width="1" opacity="1" d="M 76.5 46 L 77.5 48 L 76.5 46 Z " /><path fill="rgb(241,239,221)" stroke="rgb(241,239,221)" stroke-width="1" opacity="1" d="M 129.5 50 L 128.5 52 L 129.5 50 Z " /><path fill="rgb(241,239,221)" stroke="rgb(241,239,221)" stroke-width="1" opacity="1" d="M 227 55 L 238 55 L 238 60.5 Q 236.3 63.8 229.5 62 L 227 55 Z " /><path fill="rgb(241,239,221)" stroke="rgb(241,239,221)" stroke-width="1" opacity="1" d="M 184.5 56 L 185 73 Q 191.9 72 195 74 L 194.5 76 Q 192.8 73.3 186.5 75 L 185 75.5 L 184 72.5 L 184.5 56 Z " /><path fill="rgb(241,239,221)" stroke="rgb(241,239,221)" stroke-width="1" opacity="1" d="M 142.5 58 L 141.5 60 L 142.5 58 Z " /><path fill="rgb(241,239,221)" stroke="rgb(241,239,221)" stroke-width="1" opacity="1" d="M 161 64 L 176.5 64 L 177 68 L 161.5 68 L 161 64 Z " /><path fill="rgb(241,239,221)" stroke="rgb(241,239,221)" stroke-width="1" opacity="1" d="M 200 65 L 215.5 65 L 217 66.5 L 217 76.5 L 214.5 79 Q 204.4 80.6 202 74.5 L 200 65 Z " /><path fill="rgb(241,239,221)" stroke="rgb(241,239,221)" stroke-width="1" opacity="1" d="M 62.5 76 L 63.5 78 Q 60.7 78.7 62.5 76 Z " /><path fill="rgb(241,239,221)" stroke="rgb(241,239,221)" stroke-width="1" opacity="1" d="M 250.5 79 L 253 79.5 L 250.5 80 L 250.5 79 Z " /><path fill="rgb(241,239,221)" stroke="rgb(241,239,221)" stroke-width="1" opacity="1" d="M 137.5 82 L 138.5 84 L 137.5 82 Z " /><path fill="rgb(254,255,254)" stroke="rgb(254,255,254)" stroke-width="1" opacity="1" d="M 91.5 17 L 92.5 19 L 89.5 20 L 89.5 19 Q 92 19.7 91.5 17 Z " /><path fill="rgb(254,255,254)" stroke="rgb(254,255,254)" stroke-width="1" opacity="1" d="M 63.5 22 L 62.5 24 L 63.5 22 Z " /><path fill="rgb(254,255,254)" stroke="rgb(254,255,254)" stroke-width="1" opacity="1" d="M 72.5 22 L 74 24.5 L 72 25 L 72.5 22 Z " /><path fill="rgb(254,255,254)" stroke="rgb(254,255,254)" stroke-width="1" opacity="1" d="M 95.5 25 L 96 27.5 L 95 27.5 L 95.5 25 Z " /><path fill="rgb(254,255,254)" stroke="rgb(254,255,254)" stroke-width="1" opacity="1" d="M 25.5 26 Q 28.3 27.4 27 32 L 29 32.5 L 27.5 33 L 26 31.5 L 25.5 26 Z " /><path fill="rgb(254,255,254)" stroke="rgb(254,255,254)" stroke-width="1" opacity="1" d="M 43.5 27 L 46 27.5 L 43.5 28 L 43.5 27 Z " /><path fill="rgb(254,255,254)" stroke="rgb(254,255,254)" stroke-width="1" opacity="1" d="M 213.5 43 L 237 43.5 L 213.5 44 L 213.5 43 Z " /><path fill="rgb(254,255,254)" stroke="rgb(254,255,254)" stroke-width="1" opacity="1" d="M 247.5 43 L 254 43.5 L 247.5 44 L 247.5 43 Z " /><path fill="rgb(254,255,254)" stroke="rgb(254,255,254)" stroke-width="1" opacity="1" d="M 180.5 46 L 181.5 48 L 180.5 46 Z " /><path fill="rgb(254,255,254)" stroke="rgb(254,255,254)" stroke-width="1" opacity="1" d="M 160.5 61 L 161 68 L 177 68 L 177 61.5 L 178 61.5 Q 179 69 177 72 L 161.5 72 L 161 70.5 L 160 69.5 L 160.5 61 Z " /><path fill="rgb(254,255,254)" stroke="rgb(254,255,254)" stroke-width="1" opacity="1" d="M 228.5 61 Q 230.2 63.8 236.5 62 L 238 61.5 L 237.5 63 L 228 63 L 228.5 61 Z " /><path fill="rgb(254,255,254)" stroke="rgb(254,255,254)" stroke-width="1" opacity="1" d="M 192.5 63 L 193 65.5 L 192 65.5 L 192.5 63 Z " /><path fill="rgb(254,255,254)" stroke="rgb(254,255,254)" stroke-width="1" opacity="1" d="M 216.5 65 L 220 65 L 220 73.5 L 216.5 78 L 217 76.5 L 217 66.5 L 216.5 65 Z " /><path fill="rgb(254,255,254)" stroke="rgb(254,255,254)" stroke-width="1" opacity="1" d="M 185.5 72 L 193.5 72 L 194 73.5 L 192.5 73 L 185.5 73 L 185.5 72 Z " /><path fill="rgb(254,255,254)" stroke="rgb(254,255,254)" stroke-width="1" opacity="1" d="M 240.5 81 L 241.5 83 L 240.5 81 Z " /><path fill="rgb(254,255,254)" stroke="rgb(254,255,254)" stroke-width="1" opacity="1" d="M 146.5 83 L 145.5 85 L 146.5 83 Z " /><path fill="rgb(255,255,255)" stroke="rgb(255,255,255)" stroke-width="1" opacity="1" d="M 11.5 0 L 290.5 0 L 291 0.5 L 291 90 L 12.5 90 L 11.5 89 L 10.5 90 L 0 90 L 0 12.5 L 5.5 3 L 11.5 0 Z M 15 17 L 15 33 L 17 33 Q 19 31 19 26 L 20 31 L 24 32 L 26 26 L 27 26 L 26 28 Q 25 32 28 33 L 30 32 L 30 18 L 27 17 L 23 26 L 19 19 L 19 17 L 15 17 Z M 32 17 Q 31 22 35 20 Q 37 16 32 17 Z M 88 17 L 86 21 L 83 22 L 85 24 L 85 31 L 83 31 Q 86 29 84 24 L 80 20 L 74 22 L 74 24 L 73 22 L 69 20 L 63 23 L 59 20 L 56 21 L 52 26 L 53 31 L 57 33 L 63 30 L 69 34 L 68 34 Q 61 37 60 46 L 62 56 L 69 61 L 86 66 Q 88 65 87 69 L 84 71 L 76 69 L 73 65 L 68 65 L 59 67 L 49 35 L 50 32 L 50 25 L 52 24 L 53 20 L 51 21 L 47 21 L 47 32 L 45 32 L 46 27 Q 42 25 43 29 L 41 30 Q 38 29 39 24 L 42 23 L 43 26 Q 47 28 46 24 L 42 20 L 39 21 Q 34 23 36 30 L 38 32 L 35 32 L 35 21 L 32 21 L 32 32 L 30 35 L 21 67 L 16 80 L 17 82 L 29 82 Q 32 80 31 75 L 33 73 L 45 73 L 47 80 L 48 82 L 64 82 L 63 78 L 75 83 Q 88 85 96 80 L 102 74 L 103 71 L 103 82 L 119 82 L 119 64 L 134 64 L 142 60 L 146 54 Q 148 43 144 39 Q 140 34 134 32 L 103 32 L 103 60 L 101 57 L 96 52 L 79 48 Q 74 46 79 43 L 86 44 L 88 48 L 101 45 L 102 44 L 100 39 L 92 32 L 88 32 L 88 23 L 92 23 L 92 31 Q 93 34 98 33 Q 100 29 95 30 L 96 28 L 95 23 L 100 24 L 101 25 Q 102 21 100 20 L 96 21 L 96 20 Q 94 16 88 17 Z M 244 34 L 238 35 L 238 44 L 237 43 L 214 43 L 212 43 L 202 46 L 195 53 L 192 64 L 193 67 L 193 72 L 185 72 Q 187 57 182 48 L 175 43 L 168 43 L 161 49 L 160 44 L 154 44 L 153 45 L 153 85 L 160 85 L 160 71 L 161 71 L 162 72 L 177 72 L 178 70 L 178 85 L 216 85 L 221 83 L 228 74 Q 227 71 222 72 L 220 73 L 220 65 L 228 65 L 229 63 L 238 63 L 238 77 L 240 82 L 246 85 L 256 85 L 256 79 Q 249 80 246 78 L 245 76 L 245 49 L 255 49 L 255 47 L 260 47 L 260 44 L 256 43 L 254 43 Q 248 42 247 44 L 245 44 L 245 35 L 244 34 Z M 140 72 Q 135 74 136 82 Q 138 86 146 85 Q 150 83 149 76 Q 148 71 140 72 Z " /><path fill="rgb(255,255,255)" stroke="rgb(255,255,255)" stroke-width="1" opacity="1" d="M 91.5 19 L 92 21 L 88 20.5 L 91.5 19 Z " /><path fill="rgb(255,255,255)" stroke="rgb(255,255,255)" stroke-width="1" opacity="1" d="M 57.5 23 L 60 24.5 Q 61 29 58.5 30 L 56 28.5 Q 55 24 57.5 23 Z " /><path fill="rgb(255,255,255)" stroke="rgb(255,255,255)" stroke-width="1" opacity="1" d="M 67 23 L 70 24.5 L 67 25 L 67 23 Z " /><path fill="rgb(255,255,255)" stroke="rgb(255,255,255)" stroke-width="1" opacity="1" d="M 78.5 23 L 81 24 Q 82.3 28.6 79.5 30 L 77 30 L 77 24.5 L 78.5 23 Z " /><path fill="rgb(255,255,255)" stroke="rgb(255,255,255)" stroke-width="1" opacity="1" d="M 71.5 25 Q 73.8 24.3 73 26.5 L 71.5 25 Z " /><path fill="rgb(255,255,255)" stroke="rgb(255,255,255)" stroke-width="1" opacity="1" d="M 63.5 26 Q 65.5 28.8 70 28 Q 71.2 31.7 66 30 Q 67.1 26.7 63 28 L 63.5 26 Z " /><path fill="rgb(255,255,255)" stroke="rgb(255,255,255)" stroke-width="1" opacity="1" d="M 73.5 28 L 74 32 L 72 31.5 L 73.5 28 Z " /><path fill="rgb(255,255,255)" stroke="rgb(255,255,255)" stroke-width="1" opacity="1" d="M 119 44 L 127.5 44 L 130 46.5 Q 130.8 51.3 127.5 52 L 119 53 L 119 44 Z " /><path fill="rgb(255,255,255)" stroke="rgb(255,255,255)" stroke-width="1" opacity="1" d="M 38.5 49 L 42 60.5 L 35 61 L 38.5 49 Z " /><path fill="rgb(255,255,255)" stroke="rgb(255,255,255)" stroke-width="1" opacity="1" d="M 207.5 50 Q 217 48 219 53.5 L 221 59.5 L 201 60 Q 200.4 54.7 204.5 52 L 207.5 50 Z " /><path fill="rgb(255,255,255)" stroke="rgb(255,255,255)" stroke-width="1" opacity="1" d="M 219.5 74 L 218.5 76 L 219.5 74 Z " /><path fill="rgb(39,38,37)" stroke="rgb(39,38,37)" stroke-width="1" opacity="1" d="M 87.5 18 L 88 20.5 Q 87.3 22.8 89.5 22 L 89.5 23 L 87 23 L 87 29.5 Q 89.3 30.8 86.5 32 L 86 23.5 L 85 22.5 L 87 22.5 L 86 19.5 L 87.5 18 Z " /><path fill="rgb(39,38,37)" stroke="rgb(39,38,37)" stroke-width="1" opacity="1" d="M 18.5 19 L 17 21.5 L 16.5 30 L 16 20 L 18.5 19 Z " /><path fill="rgb(39,38,37)" stroke="rgb(39,38,37)" stroke-width="1" opacity="1" d="M 93.5 19 L 96 22.5 L 94 23 L 94 31 L 96.5 31 L 96.5 32 L 93 30.5 L 92 21.5 L 93.5 19 Z " /><path fill="rgb(39,38,37)" stroke="rgb(39,38,37)" stroke-width="1" opacity="1" d="M 26.5 20 L 28 20.5 L 25.5 22 L 26.5 20 Z " /><path fill="rgb(39,38,37)" stroke="rgb(39,38,37)" stroke-width="1" opacity="1" d="M 40.5 21 L 45 23.5 L 44.5 25 L 40.5 21 Z " /><path fill="rgb(39,38,37)" stroke="rgb(39,38,37)" stroke-width="1" opacity="1" d="M 56 21 L 59 21.5 L 55.5 24 L 56 22.5 L 56 21 Z " /><path fill="rgb(39,38,37)" stroke="rgb(39,38,37)" stroke-width="1" opacity="1" d="M 66 21 L 70 21 Q 68.9 23.7 71.5 23 L 71.5 24 L 67.5 22 L 66 24.5 L 66.5 26 L 64 25 L 66 21 Z " /><path fill="rgb(39,38,37)" stroke="rgb(39,38,37)" stroke-width="1" opacity="1" d="M 77 21 Q 80.7 19.5 80 22.5 L 77 22.5 L 77 21 Z " /><path fill="rgb(39,38,37)" stroke="rgb(39,38,37)" stroke-width="1" opacity="1" d="M 38.5 22 L 37.5 24 L 38.5 22 Z " /><path fill="rgb(39,38,37)" stroke="rgb(39,38,37)" stroke-width="1" opacity="1" d="M 47.5 22 L 50 23.5 L 48.5 23 L 47.5 22 Z " /><path fill="rgb(39,38,37)" stroke="rgb(39,38,37)" stroke-width="1" opacity="1" d="M 60.5 22 L 61.5 24 L 60.5 22 Z " /><path fill="rgb(39,38,37)" stroke="rgb(39,38,37)" stroke-width="1" opacity="1" d="M 74.5 24 L 76 27.5 L 74 28.5 L 74.5 24 Z " /><path fill="rgb(39,38,37)" stroke="rgb(39,38,37)" stroke-width="1" opacity="1" d="M 47.5 25 Q 49.8 25.8 49 29.5 L 48.5 32 Q 45.4 30.4 47.5 25 Z " /><path fill="rgb(39,38,37)" stroke="rgb(39,38,37)" stroke-width="1" opacity="1" d="M 53 25 Q 56.3 23.9 55 28 Q 51.7 29.1 53 25 Z " /><path fill="rgb(39,38,37)" stroke="rgb(39,38,37)" stroke-width="1" opacity="1" d="M 21.5 27 L 24 28.5 L 22.5 29 L 20 28.5 L 21.5 27 Z " /><path fill="rgb(39,38,37)" stroke="rgb(39,38,37)" stroke-width="1" opacity="1" d="M 37.5 29 L 41.5 31 L 44.5 29 L 44.5 30 Q 41.9 29.3 43 32 L 39 32 Q 40.1 29.3 37.5 30 L 37.5 29 Z " /><path fill="rgb(39,38,37)" stroke="rgb(39,38,37)" stroke-width="1" opacity="1" d="M 60.5 29 L 62 29.5 L 60 30 Q 61.3 33.3 56.5 32 L 56.5 31 L 60.5 29 Z " /><path fill="rgb(39,38,37)" stroke="rgb(39,38,37)" stroke-width="1" opacity="1" d="M 82.5 29 L 82.5 31 L 84 31.5 L 80.5 32 L 82.5 29 Z " /><path fill="rgb(39,38,37)" stroke="rgb(39,38,37)" stroke-width="1" opacity="1" d="M 66.5 30 L 70 31.5 L 66 32 L 66.5 30 Z " /><path fill="rgb(39,38,37)" stroke="rgb(39,38,37)" stroke-width="1" opacity="1" d="M 75.5 30 L 76.5 32 L 75.5 30 Z " /><path fill="rgb(39,38,37)" stroke="rgb(39,38,37)" stroke-width="1" opacity="1" d="M 103.5 32 L 104 81.5 L 103 81.5 L 103 69.5 L 102 68.5 L 103 64.5 L 102 62.5 L 103 61.5 L 103.5 32 Z " /><path fill="rgb(39,38,37)" stroke="rgb(39,38,37)" stroke-width="1" opacity="1" d="M 241.5 35 L 245 36.5 L 243.5 36 Q 240.5 36.5 241.5 35 Z " /><path fill="rgb(39,38,37)" stroke="rgb(39,38,37)" stroke-width="1" opacity="1" d="M 129.5 44 L 130.5 46 L 129.5 44 Z " /><path fill="rgb(39,38,37)" stroke="rgb(39,38,37)" stroke-width="1" opacity="1" d="M 208.5 44 L 239 44.5 L 208.5 45 L 208.5 44 Z " /><path fill="rgb(39,38,37)" stroke="rgb(39,38,37)" stroke-width="1" opacity="1" d="M 245.5 44 L 254 44.5 L 245.5 45 L 245.5 44 Z " /><path fill="rgb(39,38,37)" stroke="rgb(39,38,37)" stroke-width="1" opacity="1" d="M 169.5 48 L 172 48.5 L 169.5 49 L 169.5 48 Z " /><path fill="rgb(39,38,37)" stroke="rgb(39,38,37)" stroke-width="1" opacity="1" d="M 209.5 48 L 213 48.5 L 209.5 49 L 209.5 48 Z " /><path fill="rgb(39,38,37)" stroke="rgb(39,38,37)" stroke-width="1" opacity="1" d="M 223.5 48 L 239 48.5 L 223.5 49 L 223.5 48 Z " /><path fill="rgb(39,38,37)" stroke="rgb(39,38,37)" stroke-width="1" opacity="1" d="M 244.5 48 L 254 48.5 L 244.5 49 L 244.5 48 Z " /><path fill="rgb(39,38,37)" stroke="rgb(39,38,37)" stroke-width="1" opacity="1" d="M 174.5 49 L 177.5 53 L 174.5 49 Z " /><path fill="rgb(39,38,37)" stroke="rgb(39,38,37)" stroke-width="1" opacity="1" d="M 160.5 50 L 159.5 52 L 160.5 50 Z " /><path fill="rgb(39,38,37)" stroke="rgb(39,38,37)" stroke-width="1" opacity="1" d="M 164.5 50 L 162.5 53 L 164.5 50 Z " /><path fill="rgb(39,38,37)" stroke="rgb(39,38,37)" stroke-width="1" opacity="1" d="M 223.5 50 L 224.5 52 L 223.5 50 Z " /><path fill="rgb(39,38,37)" stroke="rgb(39,38,37)" stroke-width="1" opacity="1" d="M 183.5 54 L 184 57.5 L 183 57.5 L 183.5 54 Z " /><path fill="rgb(39,38,37)" stroke="rgb(39,38,37)" stroke-width="1" opacity="1" d="M 142.5 57 L 141.5 59 L 142.5 57 Z " /><path fill="rgb(39,38,37)" stroke="rgb(39,38,37)" stroke-width="1" opacity="1" d="M 221.5 58 L 222 60.5 L 221 60.5 L 221.5 58 Z " /><path fill="rgb(39,38,37)" stroke="rgb(39,38,37)" stroke-width="1" opacity="1" d="M 159.5 59 L 160 83.5 L 159 83.5 L 159.5 59 Z " /><path fill="rgb(39,38,37)" stroke="rgb(39,38,37)" stroke-width="1" opacity="1" d="M 34.5 61 L 42 61.5 L 34.5 62 L 34.5 61 Z " /><path fill="rgb(39,38,37)" stroke="rgb(39,38,37)" stroke-width="1" opacity="1" d="M 193.5 62 L 194 67.5 L 193 67.5 L 193.5 62 Z " /><path fill="rgb(39,38,37)" stroke="rgb(39,38,37)" stroke-width="1" opacity="1" d="M 227.5 62 L 228 63.5 L 226.5 65 L 200 65 L 199.5 68 L 199 65.5 L 200.5 64 L 227 64 L 227.5 62 Z " /><path fill="rgb(39,38,37)" stroke="rgb(39,38,37)" stroke-width="1" opacity="1" d="M 118.5 63 L 130 63.5 L 118.5 64 L 118.5 63 Z " /><path fill="rgb(39,38,37)" stroke="rgb(39,38,37)" stroke-width="1" opacity="1" d="M 87.5 69 L 86.5 71 L 87.5 69 Z " /><path fill="rgb(39,38,37)" stroke="rgb(39,38,37)" stroke-width="1" opacity="1" d="M 62.5 75 L 64.5 78 Q 62.8 74.9 61 76.5 L 62.5 75 Z " /><path fill="rgb(39,38,37)" stroke="rgb(39,38,37)" stroke-width="1" opacity="1" d="M 225.5 76 L 224.5 78 L 225.5 76 Z " /><path fill="rgb(39,38,37)" stroke="rgb(39,38,37)" stroke-width="1" opacity="1" d="M 78.5 82 L 83 82.5 L 78.5 83 L 78.5 82 Z " /><path fill="rgb(0,0,0)" stroke="rgb(0,0,0)" stroke-width="1" opacity="0.9882352941176471" d="M 0 0 L 11 0.5 L 3 5.5 L 0.5 12 L 0 0 Z " /><path fill="rgb(179,198,207)" stroke="rgb(179,198,207)" stroke-width="1" opacity="1" d="M 15.5 17 L 18 17.5 L 15.5 18 L 15.5 17 Z " /><path fill="rgb(179,198,207)" stroke="rgb(179,198,207)" stroke-width="1" opacity="1" d="M 28.5 17 L 30 18.5 L 30 30.5 L 29 30.5 L 29 18.5 L 28.5 17 Z " /><path fill="rgb(179,198,207)" stroke="rgb(179,198,207)" stroke-width="1" opacity="1" d="M 32.5 17 L 35 18.5 L 34.5 20 L 34 18 L 32.5 17 Z " /><path fill="rgb(179,198,207)" stroke="rgb(179,198,207)" stroke-width="1" opacity="1" d="M 87.5 17 L 86.5 19 L 87.5 17 Z " /><path fill="rgb(179,198,207)" stroke="rgb(179,198,207)" stroke-width="1" opacity="1" d="M 34.5 21 L 35 31.5 L 34 31.5 L 34.5 21 Z " /><path fill="rgb(179,198,207)" stroke="rgb(179,198,207)" stroke-width="1" opacity="1" d="M 43.5 21 L 44.5 23 L 43.5 21 Z " /><path fill="rgb(179,198,207)" stroke="rgb(179,198,207)" stroke-width="1" opacity="1" d="M 52.5 22 L 53.5 24 L 52.5 22 Z " /><path fill="rgb(179,198,207)" stroke="rgb(179,198,207)" stroke-width="1" opacity="1" d="M 60.5 25 L 61 27.5 L 60 27.5 L 60.5 25 Z " /><path fill="rgb(179,198,207)" stroke="rgb(179,198,207)" stroke-width="1" opacity="1" d="M 71.5 26 L 72.5 28 L 71.5 26 Z " /><path fill="rgb(179,198,207)" stroke="rgb(179,198,207)" stroke-width="1" opacity="1" d="M 66.5 27 L 69 27.5 L 66.5 28 L 66.5 27 Z " /><path fill="rgb(179,198,207)" stroke="rgb(179,198,207)" stroke-width="1" opacity="1" d="M 62.5 28 L 65 28.5 Q 62.9 31.8 62.5 28 Z " /><path fill="rgb(179,198,207)" stroke="rgb(179,198,207)" stroke-width="1" opacity="1" d="M 37.5 30 L 38.5 32 L 37.5 30 Z " /><path fill="rgb(179,198,207)" stroke="rgb(179,198,207)" stroke-width="1" opacity="1" d="M 44.5 30 L 43.5 32 L 44.5 30 Z " /><path fill="rgb(179,198,207)" stroke="rgb(179,198,207)" stroke-width="1" opacity="1" d="M 61.5 30 L 60.5 32 L 61.5 30 Z " /><path fill="rgb(179,198,207)" stroke="rgb(179,198,207)" stroke-width="1" opacity="1" d="M 67.5 32 L 70 33.5 L 68.5 33 L 67.5 32 Z " /><path fill="rgb(179,198,207)" stroke="rgb(179,198,207)" stroke-width="1" opacity="1" d="M 141.5 36 L 142.5 38 L 141.5 36 Z " /><path fill="rgb(179,198,207)" stroke="rgb(179,198,207)" stroke-width="1" opacity="1" d="M 238.5 36 L 239 43.5 L 238 43.5 L 238.5 36 Z " /><path fill="rgb(179,198,207)" stroke="rgb(179,198,207)" stroke-width="1" opacity="1" d="M 119.5 43 L 126 43.5 L 119 44 L 118.5 53 L 118 44.5 L 119.5 43 Z " /><path fill="rgb(179,198,207)" stroke="rgb(179,198,207)" stroke-width="1" opacity="1" d="M 169.5 43 L 174 43.5 L 169.5 44 L 169.5 43 Z " /><path fill="rgb(179,198,207)" stroke="rgb(179,198,207)" stroke-width="1" opacity="1" d="M 86.5 44 L 87.5 46 L 86.5 44 Z " /><path fill="rgb(179,198,207)" stroke="rgb(179,198,207)" stroke-width="1" opacity="1" d="M 254 44 L 257 45.5 L 255 45.5 L 254.5 49 L 254 44 Z " /><path fill="rgb(179,198,207)" stroke="rgb(179,198,207)" stroke-width="1" opacity="1" d="M 159.5 45 L 161 49.5 L 159 50.5 L 159.5 45 Z " /><path fill="rgb(179,198,207)" stroke="rgb(179,198,207)" stroke-width="1" opacity="1" d="M 60.5 46 L 61 49.5 L 60 49.5 L 60.5 46 Z " /><path fill="rgb(179,198,207)" stroke="rgb(179,198,207)" stroke-width="1" opacity="1" d="M 168.5 49 Q 175.4 48.1 177 52.5 L 178 60.5 L 177 64 L 161.5 64 L 161 61.5 L 160 58.5 L 164.5 51 L 168.5 49 Z " /><path fill="rgb(179,198,207)" stroke="rgb(179,198,207)" stroke-width="1" opacity="1" d="M 216.5 50 L 218.5 53 L 216.5 50 Z " /><path fill="rgb(179,198,207)" stroke="rgb(179,198,207)" stroke-width="1" opacity="1" d="M 204.5 51 L 202.5 54 L 204.5 51 Z " /><path fill="rgb(179,198,207)" stroke="rgb(179,198,207)" stroke-width="1" opacity="1" d="M 98.5 54 L 99.5 56 L 98.5 54 Z " /><path fill="rgb(179,198,207)" stroke="rgb(179,198,207)" stroke-width="1" opacity="1" d="M 238.5 59 L 239 74.5 L 238 74.5 L 238.5 59 Z " /><path fill="rgb(179,198,207)" stroke="rgb(179,198,207)" stroke-width="1" opacity="1" d="M 200.5 67 L 201 69.5 L 200 69.5 L 200.5 67 Z " /><path fill="rgb(179,198,207)" stroke="rgb(179,198,207)" stroke-width="1" opacity="1" d="M 32.5 72 L 45 72.5 L 32.5 73 L 31.5 74 L 32.5 72 Z " /><path fill="rgb(179,198,207)" stroke="rgb(179,198,207)" stroke-width="1" opacity="1" d="M 138.5 73 L 137.5 75 L 138.5 73 Z " /><path fill="rgb(179,198,207)" stroke="rgb(179,198,207)" stroke-width="1" opacity="1" d="M 146.5 73 L 147.5 75 L 146.5 73 Z " /><path fill="rgb(179,198,207)" stroke="rgb(179,198,207)" stroke-width="1" opacity="1" d="M 184.5 73 L 185.5 76 Q 187.3 73.3 193.5 75 L 196 76 L 197 78.5 L 185.5 79 Q 182.6 77.6 184.5 73 Z " /><path fill="rgb(138,127,115)" stroke="rgb(138,127,115)" stroke-width="1" opacity="1" d="M 88.5 17 Q 91.8 15.9 91 18.5 L 89.5 18 L 88.5 17 Z " /><path fill="rgb(138,127,115)" stroke="rgb(138,127,115)" stroke-width="1" opacity="1" d="M 15.5 18 L 16 31.5 L 15 31.5 L 15.5 18 Z " /><path fill="rgb(138,127,115)" stroke="rgb(138,127,115)" stroke-width="1" opacity="1" d="M 32.5 18 L 33.5 20 L 32.5 18 Z " /><path fill="rgb(138,127,115)" stroke="rgb(138,127,115)" stroke-width="1" opacity="1" d="M 94.5 19 L 95 21 Q 97.7 19.9 97 22.5 L 94 20.5 L 94.5 19 Z " /><path fill="rgb(138,127,115)" stroke="rgb(138,127,115)" stroke-width="1" opacity="1" d="M 25.5 20 L 28 21 L 27.5 32 L 27 22.5 L 25.5 20 Z " /><path fill="rgb(138,127,115)" stroke="rgb(138,127,115)" stroke-width="1" opacity="1" d="M 33.5 21 L 33 22.5 L 32.5 31 L 32 22.5 L 33.5 21 Z " /><path fill="rgb(138,127,115)" stroke="rgb(138,127,115)" stroke-width="1" opacity="1" d="M 39.5 21 L 41.5 22 L 43 21.5 L 40.5 23 L 39.5 21 Z " /><path fill="rgb(138,127,115)" stroke="rgb(138,127,115)" stroke-width="1" opacity="1" d="M 47.5 21 L 49.5 22 L 51 21.5 Q 49.7 24.3 48.5 22 L 47.5 21 Z " /><path fill="rgb(138,127,115)" stroke="rgb(138,127,115)" stroke-width="1" opacity="1" d="M 59.5 21 L 58.5 23 L 57 22.5 L 59.5 21 Z " /><path fill="rgb(138,127,115)" stroke="rgb(138,127,115)" stroke-width="1" opacity="1" d="M 84 21 L 86 21.5 L 84 22.5 L 84 21 Z " /><path fill="rgb(138,127,115)" stroke="rgb(138,127,115)" stroke-width="1" opacity="1" d="M 98 21 Q 101 20 100 23 Q 97 24 98 21 Z " /><path fill="rgb(138,127,115)" stroke="rgb(138,127,115)" stroke-width="1" opacity="1" d="M 75.5 22 L 76.5 24 L 75.5 22 Z " /><path fill="rgb(138,127,115)" stroke="rgb(138,127,115)" stroke-width="1" opacity="1" d="M 87.5 23 L 88 29.5 L 87 29.5 L 87.5 23 Z " /><path fill="rgb(138,127,115)" stroke="rgb(138,127,115)" stroke-width="1" opacity="1" d="M 94.5 23 L 96 30.5 L 94 29.5 L 94.5 23 Z " /><path fill="rgb(138,127,115)" stroke="rgb(138,127,115)" stroke-width="1" opacity="1" d="M 62.5 25 L 63 27.5 L 62 27.5 L 62.5 25 Z " /><path fill="rgb(138,127,115)" stroke="rgb(138,127,115)" stroke-width="1" opacity="1" d="M 64.5 25 L 65.5 27 L 64.5 25 Z " /><path fill="rgb(138,127,115)" stroke="rgb(138,127,115)" stroke-width="1" opacity="1" d="M 83.5 25 L 84 27.5 L 83 27.5 L 83.5 25 Z " /><path fill="rgb(138,127,115)" stroke="rgb(138,127,115)" stroke-width="1" opacity="1" d="M 69.5 27 L 71 29.5 L 70.5 32 Q 67.8 30.8 70 29.5 L 69.5 27 Z " /><path fill="rgb(138,127,115)" stroke="rgb(138,127,115)" stroke-width="1" opacity="1" d="M 55.5 29 Q 58.5 30.5 55.5 32 Q 52.5 30.5 55.5 29 Z " /><path fill="rgb(138,127,115)" stroke="rgb(138,127,115)" stroke-width="1" opacity="1" d="M 76.5 29 L 77.5 31 L 76.5 29 Z " /><path fill="rgb(138,127,115)" stroke="rgb(138,127,115)" stroke-width="1" opacity="1" d="M 66.5 35 L 64.5 38 L 66.5 35 Z " /><path fill="rgb(138,127,115)" stroke="rgb(138,127,115)" stroke-width="1" opacity="1" d="M 244.5 37 L 245 43.5 L 244 43.5 L 244.5 37 Z " /><path fill="rgb(138,127,115)" stroke="rgb(138,127,115)" stroke-width="1" opacity="1" d="M 79.5 42 L 83 42.5 L 79.5 43 L 79.5 42 Z " /><path fill="rgb(138,127,115)" stroke="rgb(138,127,115)" stroke-width="1" opacity="1" d="M 154.5 44 L 159 44.5 L 154 45 L 154 83.5 Q 154.1 84.6 159.5 84 L 159.5 85 Q 154.3 86.3 153 83.5 L 153 45.5 L 154.5 44 Z " /><path fill="rgb(138,127,115)" stroke="rgb(138,127,115)" stroke-width="1" opacity="1" d="M 256.5 44 L 258.5 45 L 260 44.5 Q 260.8 47.1 257.5 46 L 256.5 44 Z " /><path fill="rgb(138,127,115)" stroke="rgb(138,127,115)" stroke-width="1" opacity="1" d="M 88.5 46 L 89.5 48 L 88.5 46 Z " /><path fill="rgb(138,127,115)" stroke="rgb(138,127,115)" stroke-width="1" opacity="1" d="M 163.5 46 L 161.5 49 L 163.5 46 Z " /><path fill="rgb(138,127,115)" stroke="rgb(138,127,115)" stroke-width="1" opacity="1" d="M 179.5 46 L 181.5 49 L 179.5 46 Z " /><path fill="rgb(138,127,115)" stroke="rgb(138,127,115)" stroke-width="1" opacity="1" d="M 199.5 48 L 197.5 51 L 199.5 48 Z " /><path fill="rgb(138,127,115)" stroke="rgb(138,127,115)" stroke-width="1" opacity="1" d="M 223.5 49 L 239 49 L 239 58.5 L 238 58.5 L 237.5 55 L 227.5 55 L 226 55.5 L 223.5 49 Z " /><path fill="rgb(138,127,115)" stroke="rgb(138,127,115)" stroke-width="1" opacity="1" d="M 244.5 49 L 245 74.5 L 244 74.5 L 244.5 49 Z " /><path fill="rgb(138,127,115)" stroke="rgb(138,127,115)" stroke-width="1" opacity="1" d="M 227.5 57 L 228 61.5 L 227 61.5 L 227.5 57 Z " /><path fill="rgb(138,127,115)" stroke="rgb(138,127,115)" stroke-width="1" opacity="1" d="M 140.5 59 L 139.5 61 L 140.5 59 Z " /><path fill="rgb(138,127,115)" stroke="rgb(138,127,115)" stroke-width="1" opacity="1" d="M 178.5 59 L 179 84 L 214 84.5 L 179.5 85 L 178 83.5 L 178.5 59 Z " /><path fill="rgb(138,127,115)" stroke="rgb(138,127,115)" stroke-width="1" opacity="1" d="M 200.5 60 L 221 60.5 L 200.5 61 L 200.5 60 Z " /><path fill="rgb(138,127,115)" stroke="rgb(138,127,115)" stroke-width="1" opacity="1" d="M 118.5 64 L 119 81.5 L 118 81.5 L 118.5 64 Z " /><path fill="rgb(138,127,115)" stroke="rgb(138,127,115)" stroke-width="1" opacity="1" d="M 86.5 65 L 87.5 67 L 86.5 65 Z " /><path fill="rgb(138,127,115)" stroke="rgb(138,127,115)" stroke-width="1" opacity="1" d="M 73.5 67 L 75.5 70 L 73.5 67 Z " /><path fill="rgb(138,127,115)" stroke="rgb(138,127,115)" stroke-width="1" opacity="1" d="M 220.5 74 L 219.5 76 L 220.5 74 Z " /><path fill="rgb(138,127,115)" stroke="rgb(138,127,115)" stroke-width="1" opacity="1" d="M 99.5 75 L 97.5 78 L 99.5 75 Z " /><path fill="rgb(138,127,115)" stroke="rgb(138,127,115)" stroke-width="1" opacity="1" d="M 202.5 75 L 204.5 78 L 202.5 75 Z " /><path fill="rgb(138,127,115)" stroke="rgb(138,127,115)" stroke-width="1" opacity="1" d="M 148.5 77 L 149 79.5 L 148 79.5 L 148.5 77 Z " /><path fill="rgb(138,127,115)" stroke="rgb(138,127,115)" stroke-width="1" opacity="1" d="M 196.5 77 L 198 80 L 184.5 80 L 184 78.5 L 185.5 79 L 197 78.5 L 196.5 77 Z " /><path fill="rgb(138,127,115)" stroke="rgb(138,127,115)" stroke-width="1" opacity="1" d="M 217.5 77 L 216.5 79 L 217.5 77 Z " /><path fill="rgb(138,127,115)" stroke="rgb(138,127,115)" stroke-width="1" opacity="1" d="M 245.5 77 L 246.5 79 L 245.5 77 Z " /><path fill="rgb(138,127,115)" stroke="rgb(138,127,115)" stroke-width="1" opacity="1" d="M 209.5 79 L 214 79.5 L 209.5 80 L 209.5 79 Z " /><path fill="rgb(138,127,115)" stroke="rgb(138,127,115)" stroke-width="1" opacity="1" d="M 223.5 79 L 222.5 81 L 223.5 79 Z " /><path fill="rgb(138,127,115)" stroke="rgb(138,127,115)" stroke-width="1" opacity="1" d="M 254.5 79 Q 256.8 79.8 256 83.5 L 254.5 85 L 246.5 85 L 246.5 84 L 255 84 L 255 80.5 L 254.5 79 Z " /><path fill="rgb(138,127,115)" stroke="rgb(138,127,115)" stroke-width="1" opacity="1" d="M 240.5 80 L 242.5 83 L 240.5 80 Z " /><path fill="rgb(138,127,115)" stroke="rgb(138,127,115)" stroke-width="1" opacity="1" d="M 75.5 82 L 78 82.5 L 75.5 83 L 75.5 82 Z " /><path fill="rgb(138,127,115)" stroke="rgb(138,127,115)" stroke-width="1" opacity="1" d="M 83.5 82 L 86 82.5 L 83.5 83 L 83.5 82 Z " /><path fill="rgb(0,0,0)" stroke="rgb(0,0,0)" stroke-width="1" opacity="1" d="M 16 18 Q 18.7 16.9 18 19.5 L 19 21.5 L 18 21.5 Q 18.7 18.9 16 20 L 16 18 Z " /><path fill="rgb(0,0,0)" stroke="rgb(0,0,0)" stroke-width="1" opacity="1" d="M 27.5 18 L 29 18.5 L 29 30.5 L 28 30.5 L 28 20.5 L 26.5 20 L 27.5 18 Z " /><path fill="rgb(0,0,0)" stroke="rgb(0,0,0)" stroke-width="1" opacity="1" d="M 88.5 18 L 87.5 20 L 88.5 18 Z " /><path fill="rgb(0,0,0)" stroke="rgb(0,0,0)" stroke-width="1" opacity="1" d="M 33.5 22 L 34 30.5 L 33 30.5 L 33.5 22 Z " /><path fill="rgb(0,0,0)" stroke="rgb(0,0,0)" stroke-width="1" opacity="1" d="M 39.5 22 L 38 24.5 L 37.5 29 L 37 24.5 L 39.5 22 Z " /><path fill="rgb(0,0,0)" stroke="rgb(0,0,0)" stroke-width="1" opacity="1" d="M 55.5 22 L 55 23.5 L 54.5 25 L 54 23.5 L 55.5 22 Z " /><path fill="rgb(0,0,0)" stroke="rgb(0,0,0)" stroke-width="1" opacity="1" d="M 59.5 22 Q 63 23 62 28.5 L 61 28.5 Q 61.6 23 59.5 22 Z " /><path fill="rgb(0,0,0)" stroke="rgb(0,0,0)" stroke-width="1" opacity="1" d="M 76.5 22 L 76 23.5 L 75.5 25 L 75 23.5 L 76.5 22 Z " /><path fill="rgb(0,0,0)" stroke="rgb(0,0,0)" stroke-width="1" opacity="1" d="M 80.5 22 Q 84 23 83 28.5 L 80.5 32 Q 93.5 30.5 98 37.5 L 101 44 L 89.5 47 L 88 44 Q 85.4 41.3 78.5 42 L 76 43 L 76 48 L 77.5 48 L 81.5 50 L 93.5 52 L 99 55 Q 102.8 59 103 67.5 Q 101.8 75.8 95.5 79 Q 87.9 83.9 73.5 82 Q 65.5 80 61.5 74 L 61 76.5 L 63 82 L 48.5 82 L 48 79.5 L 46 72 L 31.5 72 L 31 74.5 L 27.5 82 L 17.5 82 L 17 79.5 L 32 32 L 47.5 32 L 48 34.5 L 58 66.5 L 59.5 68 L 66.5 66 L 73 66 L 75.5 70 Q 79 72.5 86.5 71 Q 88.8 70.3 88 66.5 L 81.5 63 L 70.5 61 L 63 55.5 Q 60.1 51.9 61 44.5 L 67.5 35 L 77 31.5 L 75 28.5 L 76 28.5 L 77.5 31 Q 81.5 31.5 82 28.5 Q 82.6 23 80.5 22 Z M 39 47 L 34 61 L 35 62 L 42 62 L 42 58 L 39 47 Z " /><path fill="rgb(0,0,0)" stroke="rgb(0,0,0)" stroke-width="1" opacity="1" d="M 19.5 23 L 23 30.5 L 21 29.5 L 19.5 23 Z " /><path fill="rgb(0,0,0)" stroke="rgb(0,0,0)" stroke-width="1" opacity="1" d="M 48.5 23 L 49 25.5 L 48 25.5 L 48.5 23 Z " /><path fill="rgb(0,0,0)" stroke="rgb(0,0,0)" stroke-width="1" opacity="1" d="M 65.5 25 L 72 27 L 70.5 31 L 71 29.5 L 69.5 27 Q 64.9 27.8 65.5 25 Z " /><path fill="rgb(0,0,0)" stroke="rgb(0,0,0)" stroke-width="1" opacity="1" d="M 54.5 28 L 56 30.5 L 54 29.5 L 54.5 28 Z " /><path fill="rgb(0,0,0)" stroke="rgb(0,0,0)" stroke-width="1" opacity="1" d="M 64.5 29 L 65.5 31 L 64.5 29 Z " /><path fill="rgb(0,0,0)" stroke="rgb(0,0,0)" stroke-width="1" opacity="1" d="M 104 32 L 128.5 32 Q 129.7 34.3 134.5 33 L 142 37.5 Q 146 41.5 146 49.5 Q 144.6 57.6 138.5 61 L 133.5 63 L 118 63 L 118 82 L 104 82 L 104 32 Z M 118 43 L 118 53 L 128 53 L 130 52 Q 132 51 131 46 L 128 43 L 118 43 Z " /><path fill="rgb(0,0,0)" stroke="rgb(0,0,0)" stroke-width="1" opacity="1" d="M 239 36 L 244 36 L 244 43.5 L 245.5 45 L 254 45 L 254 48 L 244.5 48 L 244 48.5 L 244 76.5 Q 246.2 82 255 80 L 255 84 L 245.5 84 L 241 80.5 L 239 75.5 L 239 48 L 223.5 48 L 223 50.5 Q 228.3 54.6 227 64 L 200.5 64 L 199 65.5 L 200 72.5 L 205.5 79 L 214.5 80 L 221 74.5 Q 220.1 71.5 224.5 73 L 226 75.5 L 221.5 81 L 215.5 84 L 179 84 L 179 55.5 L 174.5 49 L 169.5 48 L 162 52.5 L 159 59.5 L 159 84 L 154 83.5 L 154 45 L 159 45 L 159 51.5 L 161 50.5 L 164.5 46 Q 167.5 43 174.5 44 L 182 49.5 L 184 58.5 L 184 80 L 199 79.5 Q 191.5 74 194 58.5 Q 195.6 51.5 200.5 48 L 206.5 45 L 239 45 L 239 36 Z M 210 48 L 203 51 L 200 57 Q 199 61 201 61 L 222 61 L 221 55 L 219 51 Q 216 48 210 48 Z " /><path fill="rgb(0,0,0)" stroke="rgb(0,0,0)" stroke-width="1" opacity="1" d="M 140.5 73 L 147 74 L 148 80.5 Q 147 85 140.5 84 Q 136 83 137 76.5 L 138 74 L 140.5 73 Z " /></svg>