<svg width="429" height="132" version="1.1" xmlns="http://www.w3.org/2000/svg" desc="Created with imagetracer.js version 1.2.4" ><path fill="rgb(0,0,0)" stroke="rgb(0,0,0)" stroke-width="1" opacity="0" d="M 0 0 L 90 0.5 L 71.5 2 L 52.5 6 L 37.5 11 L 13.5 23 L 2 33.5 L 0.5 37 L 0 0 Z " /><path fill="rgb(0,0,0)" stroke="rgb(0,0,0)" stroke-width="1" opacity="0" d="M 112.5 0 L 428.5 0 L 429 0.5 L 429 99.5 L 427.5 99 Q 417.9 97.9 415 103.5 L 414 108.5 L 417.5 114 L 424 118 L 425 122 L 416.5 122 L 415 120.5 L 413.5 117 L 406 121 L 408 110.5 L 408 101.5 Q 406.3 98.2 400.5 99 L 394 102 Q 395.7 97.9 391.5 99 L 383 103 L 381.5 100 L 373.5 99 L 366 103.5 Q 361.8 107.8 362 116.5 L 358.5 120 Q 355.2 121.1 356 118.5 L 359 105.5 L 359 99 L 355.5 99 L 347 104.5 L 349.5 106 L 353 105 L 350.5 119 L 350 117 L 343 120 L 344 106.5 L 346.5 102 Q 348.3 104.8 350 100.5 L 345 98.5 L 347 90.5 L 347 82.5 L 344.5 84 L 342 85.5 L 340 92.5 L 340 98.5 L 338.5 100 Q 333.3 98.5 335 103 Q 340.2 100.9 339 105.5 L 337 115.5 L 334.5 119 L 331.5 121 Q 329 120 330 115.5 Q 333.2 108.5 332 98 L 322 103.5 Q 321.2 106.1 324.5 105 L 326 104.5 L 325 117.5 L 322.5 121 L 316 123 L 318 99 L 314.5 99 L 308 103.5 L 308 105 L 312 105 L 312 109.5 L 310 117 L 304.5 121 L 304 111.5 L 309 86.5 L 309 74 L 305.5 74 L 297 79 Q 295.3 83.1 299.5 82 L 303 80 L 302 92.5 L 298 109.5 L 297 124.5 Q 298.3 127.3 303.5 126 L 309.5 121 L 310 126 L 315.5 127 L 324 124 L 325.5 127 Q 332.5 126 335.5 121 L 338.5 127 Q 346.4 125.9 349.5 120 Q 348.9 124.6 351.5 126 L 355.5 126 L 363 122 L 365.5 126 L 371.5 127 Q 378.1 126.1 381 121.5 Q 385.7 116.4 384 106 L 387.5 104 L 388 112.5 L 386 119.5 L 386 126.5 L 387.5 126 L 392 123.5 L 394 106.5 L 396.5 104 L 400.5 102 L 402 103.5 L 402 111.5 L 400 118.5 L 400 127 Q 407.9 126.8 411.5 121 L 413.5 126 L 419.5 127 L 425.5 125 L 428.5 122 L 429 132 L 233 131.5 L 251.5 127 L 263 117.5 Q 267.2 112.7 266 102.5 L 260.5 94 L 246.5 86 L 222.5 79 L 219 76.5 L 221.5 72 Q 229.3 66.3 240.5 64 L 262.5 62 L 262.5 63 L 254 69.5 Q 252.3 74.8 257.5 73 Q 265.3 66.8 276.5 64 L 280 60.5 L 281 48.5 L 278.5 46 L 270.5 44 L 251.5 44 L 250.5 45 L 237.5 46 L 224.5 50 Q 216.1 53.6 211 60.5 L 207 69.5 L 206 81.5 L 210.5 87 L 221.5 92 L 246.5 98 L 254 104.5 Q 254.8 106.8 252.5 106 Q 246.4 111.4 236.5 113 Q 231 111.5 229.5 114 L 203.5 114 L 203.5 113 L 205 113 L 205 109 Q 196.1 108 192 112 L 188 118.5 L 187 124.5 L 191.5 130 L 197 131.5 L 0 132 L 0.5 45 Q 0.3 49.7 3.5 51 Q 7.3 53.7 15.5 52 L 22 46.5 L 27.5 39 Q 42.9 29.4 63.5 25 L 74.5 24 L 75.5 23 L 84.5 23 L 85.5 22 L 107.5 22 L 108.5 23 L 117.5 23 L 139.5 27 L 149.5 31 Q 165.7 37.3 176 49.5 Q 180.6 54.9 181 64.5 Q 178 82.5 165.5 91 L 149.5 101 L 144.5 101 L 143 99.5 L 143 88.5 L 140.5 86 L 130.5 86 L 120 94.5 Q 113.7 99.7 114 111.5 L 116 117.5 L 118.5 120 Q 124.1 124.4 134.5 124 L 145.5 122 L 158.5 117 L 174.5 108 L 191 93.5 Q 198.6 85.6 202 73.5 Q 204.4 66.4 203 55.5 Q 199 35.5 185.5 25 Q 173.7 14.8 157.5 9 L 130.5 2 L 112.5 1 L 112.5 0 Z M 130 42 L 127 45 Q 126 50 131 51 L 136 50 L 138 47 L 137 45 Q 136 41 130 42 Z M 109 46 L 106 48 L 119 52 Q 125 55 126 64 L 126 71 L 124 78 L 125 79 Q 130 73 132 63 L 131 56 L 126 50 L 109 46 Z M 153 47 L 141 50 L 138 52 L 133 60 Q 134 71 139 79 Q 138 81 141 80 L 139 75 L 139 61 L 142 56 L 148 51 L 157 48 L 153 47 Z M 356 84 L 353 87 Q 352 91 355 92 L 361 91 L 362 89 L 361 86 Q 362 83 356 84 Z M 285 99 L 282 100 Q 275 104 273 113 L 274 124 L 280 127 L 289 125 Q 293 122 295 116 L 295 104 L 294 102 Q 292 98 285 99 Z " /><path fill="rgb(0,0,0)" stroke="rgb(0,0,0)" stroke-width="1" opacity="0" d="M 284.5 102 Q 288.3 101.3 289 103.5 L 290 113.5 L 286 123 L 281.5 124 Q 277.8 121.8 279 114.5 L 281 106.5 L 284.5 102 Z " /><path fill="rgb(0,0,0)" stroke="rgb(0,0,0)" stroke-width="1" opacity="0" d="M 373.5 102 Q 377.9 100.5 377 103.5 Q 379.7 105.8 379 111.5 L 376 120.5 L 372.5 124 Q 368.5 124.5 368 121.5 Q 366.5 107.5 373.5 102 Z " /><path fill="rgb(0,0,0)" stroke="rgb(0,0,0)" stroke-width="1" opacity="0" d="M 420.5 103 L 428 106 L 428.5 103 L 429 114.5 L 428 114.5 L 424.5 110 L 418 104.5 L 420.5 103 Z " /><path fill="rgb(78,185,77)" stroke="rgb(78,185,77)" stroke-width="1" opacity="0.8901960784313725" d="M 251.5 44 L 270.5 44 L 278.5 46 L 281 48.5 Q 282.8 60.3 276.5 64 Q 265.3 66.8 257.5 73 L 254 73 Q 253 66.6 258.5 65 L 263 62.5 L 255.5 62 L 254.5 63 L 246.5 63 L 236.5 65 Q 226.5 67.5 220 73.5 L 219 76.5 L 222.5 79 L 246.5 86 Q 256.4 89.6 263 96.5 Q 267.3 100.7 266 110.5 Q 263.5 119.5 256.5 124 L 251.5 127 L 232.5 132 L 197.5 132 Q 190.9 131.1 188 126.5 L 187 121.5 L 192 112 Q 196.1 108 205 109 L 205 113 L 203.5 113 L 203.5 114 L 229.5 114 Q 231 111.5 236.5 113 Q 247.1 110.8 254 106 L 249.5 100 L 241.5 96 L 221.5 92 L 210.5 87 L 207 83.5 L 206 75.5 L 209 63.5 L 217.5 54 L 233.5 47 L 242.5 45 L 250.5 45 L 251.5 44 Z " /><path fill="rgb(78,185,77)" stroke="rgb(78,185,77)" stroke-width="1" opacity="0.8901960784313725" d="M 108.5 46 L 111 47.5 L 106.5 48 L 106.5 47 L 108.5 46 Z " /><path fill="rgb(78,185,77)" stroke="rgb(78,185,77)" stroke-width="1" opacity="0.8901960784313725" d="M 124 77 L 126 77.5 L 124 78.5 L 124 77 Z " /><path fill="rgb(78,185,77)" stroke="rgb(78,185,77)" stroke-width="1" opacity="0.8901960784313725" d="M 129 103 L 135 107.5 L 131.5 108 L 129 107 L 129 103 Z " /><path fill="rgb(252,251,252)" stroke="rgb(252,251,252)" stroke-width="1" opacity="0.9764705882352941" d="M 90.5 7 L 123.5 8 L 147.5 13 Q 172.2 19.8 187 36.5 L 195 51.5 Q 197.4 58.6 196 69.5 L 193 78.5 L 179.5 95 L 167.5 104 L 147.5 114 L 129.5 117 L 124.5 116 L 121 113.5 L 120 107.5 L 122 102.5 L 131.5 92 L 140 91 Q 140.8 94.8 137.5 96 L 129 101 L 128 106.5 L 131.5 109 L 140.5 110 Q 164.8 104.3 178 87.5 Q 186.7 78.7 188 62.5 L 185 51.5 L 170.5 35 L 150.5 24 L 134.5 19 L 117.5 16 L 107.5 16 L 106.5 15 L 86.5 15 L 85.5 16 L 75.5 16 L 74.5 17 L 63.5 18 L 51.5 21 Q 32.1 26.6 18 37.5 L 17 43.5 L 14.5 46 L 8.5 47 Q 4.8 45.8 6 39.5 L 11.5 33 L 33.5 20 L 53.5 13 L 72.5 9 L 89.5 8 L 90.5 7 Z " /><path fill="rgb(252,251,252)" stroke="rgb(252,251,252)" stroke-width="1" opacity="0.9764705882352941" d="M 152.5 47 L 157 47.5 L 151 50 L 152.5 47 Z " /><path fill="rgb(252,251,252)" stroke="rgb(252,251,252)" stroke-width="1" opacity="0.9764705882352941" d="M 146.5 49 L 150 50.5 L 148.5 50 L 141 55.5 L 141.5 57 L 140 56.5 Q 136.2 61.2 138 71.5 L 136.5 73 L 137 71.5 L 133 59.5 L 135 59 L 135 56.5 L 139.5 52 L 141 51.5 L 140.5 50 L 142.5 51 L 146.5 49 Z " /><path fill="rgb(252,251,252)" stroke="rgb(252,251,252)" stroke-width="1" opacity="0.9764705882352941" d="M 305.5 74 L 309 74.5 L 309 86.5 L 304 111.5 L 304 120.5 L 308.5 117 Q 310.8 117.8 310 115.5 L 312 105 L 308 103.5 L 314.5 99 L 318 99 L 316 123 Q 321.3 123.6 324 119.5 L 326 111.5 L 326 104.5 L 324.5 105 Q 321.2 106.1 322 103.5 L 332 98 L 332 108.5 L 330 119.5 L 331.5 121 Q 333.3 117.9 335 119.5 L 337 115.5 L 339 103 Q 333.4 104.9 335 100 Q 338.8 101 340 98.5 L 341 87.5 L 343.5 84 L 346.5 82 L 347 90.5 L 345 98.5 L 350 100.5 L 349.5 102 L 355.5 99 L 359 99 L 359 105.5 L 356 120 Q 360.7 120.8 362 116.5 Q 361.8 106.3 367.5 102 Q 371 98 379.5 99 L 383 101.5 Q 382.3 103.8 384.5 103 L 394 99 Q 392.5 102.8 395.5 102 Q 397.7 98.2 404.5 99 L 408 101.5 L 408 110.5 L 406 121 L 413.5 117 L 416.5 122 L 424.5 122 L 425 120.5 L 424 118 L 416 112.5 L 414 106.5 L 418.5 100 L 427.5 99 L 429 102.5 L 428 106 L 420.5 103 L 418 104.5 L 428 113.5 L 429 121.5 Q 426 126.5 418.5 127 L 412 124.5 L 411.5 121 Q 407.9 126.8 400 127 L 402 103.5 Q 400.8 100.8 399.5 103 L 394 106.5 L 393 118.5 L 390.5 125 L 386.5 127 L 386 119.5 L 388 112.5 L 388 104.5 L 385.5 106 L 384 106.5 L 384 115.5 L 378.5 124 Q 375.3 127.3 368.5 127 L 363 123.5 Q 363.8 121.3 361.5 122 L 355.5 126 L 351.5 126 Q 348.9 124.6 349.5 120 Q 346.4 125.9 338.5 127 L 335.5 120 L 331.5 125 L 325.5 127 L 324 124 Q 320 126.7 312.5 127 L 310 126 L 309.5 121 L 303.5 126 L 298.5 126 Q 295.3 124.3 297 117.5 L 302 92.5 L 303 80 L 297 82 Q 295.5 78.3 298.5 79 L 305.5 74 Z M 347 102 L 344 107 L 343 120 L 350 117 L 351 119 L 353 105 L 349 106 L 347 102 Z M 374 102 Q 367 108 368 122 Q 369 125 373 124 L 376 121 L 379 112 Q 380 106 377 104 Q 378 100 374 102 Z " /><path fill="rgb(252,251,252)" stroke="rgb(252,251,252)" stroke-width="1" opacity="0.9764705882352941" d="M 138 75 Q 140.7 73.9 140 76.5 L 141 80 Q 138.3 81.1 139 78.5 L 138 75 Z " /><path fill="rgb(252,251,252)" stroke="rgb(252,251,252)" stroke-width="1" opacity="0.9764705882352941" d="M 355.5 84 Q 361.6 82.8 361 85.5 L 362 88.5 L 361 91 L 354.5 92 Q 352 91 353 86.5 L 355.5 84 Z " /><path fill="rgb(252,251,252)" stroke="rgb(252,251,252)" stroke-width="1" opacity="0.9764705882352941" d="M 284.5 99 Q 291.8 97.8 294 101.5 L 295 103.5 L 295 115.5 Q 293.5 122 288.5 125 L 279.5 127 L 274 123.5 L 273 112.5 Q 275.1 104.1 281.5 100 L 284.5 99 Z M 286 101 L 284 102 L 282 106 L 279 111 L 280 113 L 279 121 L 279 123 L 282 124 L 285 123 L 286 123 L 286 121 Q 289 122 288 120 L 290 116 L 289 115 Q 292 113 290 107 L 290 105 L 289 102 L 286 101 Z " /><path fill="rgb(173,173,176)" stroke="rgb(173,173,176)" stroke-width="1" opacity="0.9176470588235294" d="M 90.5 0 L 123.5 1 L 148.5 6 L 174.5 17 L 192 31.5 Q 204.3 43.7 203 69.5 L 197 85.5 L 182.5 102 L 156.5 118 L 145.5 122 L 128.5 124 Q 120.2 122.8 116 117.5 L 114 107.5 Q 116.4 94.9 125.5 89 Q 129.6 84.1 140.5 86 L 143 88.5 L 143 99.5 L 144.5 101 L 149.5 101 L 155.5 98 L 173 83.5 Q 180.2 76.2 181 62.5 Q 178.4 48.6 168.5 42 L 158.5 35 L 139.5 27 L 117.5 23 L 108.5 23 L 107.5 22 L 85.5 22 L 84.5 23 L 75.5 23 L 74.5 24 L 63.5 25 L 43.5 31 L 30.5 37 L 23 43.5 L 17.5 51 Q 13.7 53.7 5.5 52 L 1 48.5 L 0 37.5 Q 3.3 29.3 10.5 25 L 32.5 13 L 52.5 6 L 71.5 2 L 89.5 1 L 90.5 0 Z M 91 7 L 90 8 L 73 9 L 54 13 L 34 20 L 12 33 L 6 40 Q 5 46 9 47 L 15 46 L 17 44 L 18 38 Q 32 27 52 21 L 64 18 L 75 17 L 76 16 L 86 16 L 87 15 L 107 15 L 108 16 L 118 16 L 135 19 L 151 24 L 171 35 L 185 52 L 188 63 Q 187 79 178 88 Q 165 104 141 110 L 132 109 L 128 107 L 129 101 L 138 96 Q 141 95 140 91 L 132 92 L 122 103 L 120 108 L 121 114 L 125 116 L 130 117 L 148 114 L 168 104 L 180 95 L 193 79 L 196 70 Q 197 59 195 52 L 187 37 Q 172 20 148 13 L 124 8 L 91 7 Z M 129 103 L 129 107 L 132 108 L 135 108 L 129 103 Z " /><path fill="rgb(173,173,176)" stroke="rgb(173,173,176)" stroke-width="1" opacity="0.9176470588235294" d="M 129.5 42 Q 135.8 40.8 137 44.5 L 138 46.5 L 135.5 50 L 130.5 51 Q 126.3 50.3 127 44.5 L 129.5 42 Z " /><path fill="rgb(173,173,176)" stroke="rgb(173,173,176)" stroke-width="1" opacity="0.9176470588235294" d="M 111.5 47 Q 125.8 46.7 131 55.5 L 132 62.5 L 127 77 Q 123 78.4 125 71.5 Q 127.7 69.7 126 63.5 Q 124.6 55.4 118.5 52 L 110 48.5 L 111.5 47 Z " /><path fill="rgb(173,173,176)" stroke="rgb(173,173,176)" stroke-width="1" opacity="0.9176470588235294" d="M 146.5 48 Q 152.3 46.3 151 50 Q 144.7 51.1 141 56.5 L 139 60.5 L 139 75 Q 136 76.3 137 72.5 L 134 64.5 L 135 64.5 L 137.5 72 L 138 60.5 L 145.5 51 L 149 49.5 L 146.5 49 Q 138.9 50.9 135 56.5 L 134.5 59 L 134 56.5 L 137.5 52 L 146.5 48 Z " /><path fill="rgb(173,173,176)" stroke="rgb(173,173,176)" stroke-width="1" opacity="0.9176470588235294" d="M 133.5 60 L 134 62.5 L 133 62.5 L 133.5 60 Z " /><path fill="rgb(173,173,176)" stroke="rgb(173,173,176)" stroke-width="1" opacity="0.9176470588235294" d="M 283.5 102 L 282.5 104 L 283.5 102 Z " /><path fill="rgb(173,173,176)" stroke="rgb(173,173,176)" stroke-width="1" opacity="0.9176470588235294" d="M 334.5 119 L 335.5 121 L 334.5 119 Z " /></svg>